<?xml version="1.0" encoding="utf-8"?>
<!-- Generator: Adobe Illustrator 24.0.2, SVG Export Plug-In . SVG Version: 6.00 Build 0)  -->
<svg version="1.1" id="Camada_1" xmlns="http://www.w3.org/2000/svg" xmlns:xlink="http://www.w3.org/1999/xlink" x="0px" y="0px"
	 viewBox="0 0 150 86" style="enable-background:new 0 0 150 86;" xml:space="preserve">
<style type="text/css">
	.st0{fill:#FFFFFF;}
	.st1{fill:#1D1D1B;}
	.st2{fill:#014898;}
</style>
<rect class="st0" width="150" height="86"/>
<g>
	<path class="st1" d="M139.49,42.77c0-0.3,0.11-0.55,0.32-0.76c0.21-0.21,0.46-0.31,0.76-0.31c0.29,0,0.54,0.1,0.75,0.31
		c0.21,0.21,0.32,0.46,0.32,0.76c0,0.29-0.11,0.54-0.32,0.76c-0.21,0.21-0.46,0.31-0.75,0.31c-0.3,0-0.55-0.1-0.76-0.31
		C139.59,43.31,139.49,43.06,139.49,42.77z M140.56,41.84c-0.26,0-0.47,0.09-0.65,0.27c-0.18,0.18-0.27,0.4-0.27,0.65
		c0,0.26,0.09,0.47,0.27,0.65c0.18,0.18,0.4,0.27,0.65,0.27c0.25,0,0.47-0.09,0.65-0.27c0.18-0.18,0.27-0.4,0.27-0.65
		c0-0.26-0.09-0.47-0.27-0.65C141.03,41.93,140.81,41.84,140.56,41.84z M140.12,42.18h0.42c0.15,0,0.27,0.03,0.35,0.08
		c0.08,0.06,0.13,0.14,0.13,0.24c0,0.07-0.02,0.14-0.07,0.2c-0.05,0.06-0.11,0.1-0.18,0.12l0.25,0.54h-0.21l-0.23-0.51h-0.25v0.51
		h-0.2V42.18z M140.32,42.33v0.36h0.27c0.07,0,0.13-0.02,0.17-0.05c0.04-0.03,0.06-0.08,0.06-0.13c0-0.06-0.02-0.11-0.07-0.14
		c-0.05-0.03-0.13-0.04-0.23-0.04H140.32z"/>
	<g>
		<path class="st1" d="M137.97,51.42c-0.41,0.57-0.82,1.01-1.24,1.33c-0.42,0.32-0.79,0.48-1.1,0.48c-0.24,0-0.42-0.07-0.56-0.2
			c-0.14-0.14-0.21-0.32-0.21-0.57c0-0.27,0.11-0.8,0.33-1.6l0.02-0.09l1.96-7.23c0.02-0.08,0.04-0.16,0.05-0.23
			c0.01-0.07,0.01-0.13,0.01-0.19c0-0.23-0.06-0.39-0.19-0.47c-0.13-0.08-0.39-0.13-0.79-0.14l0.02-0.28
			c0.68-0.08,1.38-0.18,2.08-0.32c0.18-0.04,0.28-0.05,0.31-0.05c0.06,0,0.11,0.01,0.14,0.03c0.03,0.02,0.05,0.06,0.05,0.1
			c0,0.04-0.01,0.09-0.02,0.14c-0.01,0.06-0.03,0.11-0.05,0.17l-2.44,8.82c-0.05,0.18-0.09,0.34-0.12,0.49
			c-0.03,0.15-0.04,0.24-0.04,0.29c0,0.12,0.02,0.21,0.07,0.27c0.05,0.06,0.12,0.09,0.21,0.09c0.15,0,0.32-0.08,0.51-0.24
			c0.19-0.16,0.44-0.45,0.75-0.85L137.97,51.42z"/>
		<path class="st1" d="M134.33,51.43c-0.42,0.6-0.82,1.06-1.19,1.37c-0.37,0.31-0.71,0.46-1.02,0.46c-0.21,0-0.36-0.06-0.47-0.18
			c-0.11-0.12-0.16-0.3-0.16-0.53c0-0.15,0.04-0.38,0.11-0.69c0.07-0.31,0.21-0.81,0.42-1.49c-0.62,1.04-1.19,1.78-1.7,2.22
			c-0.51,0.45-1.02,0.67-1.55,0.67c-0.41,0-0.73-0.14-0.96-0.44c-0.23-0.29-0.34-0.7-0.34-1.24c0-0.64,0.12-1.3,0.37-1.98
			c0.24-0.68,0.59-1.31,1.02-1.87c0.47-0.62,0.96-1.08,1.47-1.4c0.5-0.32,1-0.48,1.5-0.48c0.31,0,0.57,0.07,0.77,0.21
			c0.2,0.14,0.33,0.34,0.38,0.6l0.2-0.67h1.18l-1.4,5c-0.07,0.26-0.12,0.48-0.16,0.65c-0.04,0.18-0.06,0.31-0.06,0.41
			c0,0.06,0.03,0.1,0.08,0.15c0.05,0.04,0.11,0.06,0.19,0.06c0.11,0,0.26-0.08,0.44-0.24c0.18-0.16,0.4-0.43,0.69-0.8L134.33,51.43z
			 M131.86,46.28c-0.35,0-0.7,0.14-1.03,0.41c-0.34,0.27-0.66,0.68-0.96,1.23c-0.32,0.58-0.57,1.17-0.75,1.79
			c-0.18,0.62-0.27,1.18-0.27,1.69c0,0.29,0.06,0.52,0.18,0.68c0.12,0.16,0.28,0.25,0.49,0.25c0.29,0,0.59-0.14,0.9-0.42
			c0.31-0.28,0.66-0.71,1.03-1.3c0.39-0.61,0.68-1.21,0.89-1.79c0.21-0.59,0.31-1.11,0.31-1.58c0-0.32-0.07-0.56-0.2-0.72
			C132.31,46.36,132.11,46.28,131.86,46.28z"/>
		<path class="st1" d="M119.56,53.12l1.49-5.03c0.07-0.22,0.12-0.41,0.15-0.57c0.03-0.16,0.05-0.29,0.05-0.39
			c0-0.18-0.07-0.31-0.2-0.39c-0.13-0.08-0.36-0.12-0.69-0.12h-0.13l0.05-0.28c0.78-0.08,1.54-0.21,2.29-0.39
			c0.15-0.04,0.24-0.05,0.26-0.05c0.03,0,0.05,0.01,0.06,0.03c0.01,0.02,0.02,0.06,0.02,0.12c-0.01,0.02-0.01,0.04-0.02,0.09
			c-0.01,0.04-0.03,0.11-0.06,0.21l-0.86,2.75c0.74-1.02,1.45-1.8,2.13-2.35c0.68-0.54,1.28-0.82,1.8-0.82
			c0.29,0,0.51,0.07,0.66,0.22c0.16,0.15,0.23,0.35,0.23,0.63c0,0.17-0.02,0.37-0.06,0.59c-0.04,0.22-0.09,0.45-0.16,0.7l-0.88,3.03
			c-0.08,0.26-0.13,0.45-0.15,0.58c-0.03,0.13-0.04,0.23-0.04,0.31c0,0.12,0.03,0.21,0.08,0.27c0.06,0.06,0.13,0.09,0.24,0.09
			c0.16,0,0.33-0.11,0.52-0.32c0.19-0.21,0.42-0.54,0.67-0.99l0.25,0.18c-0.38,0.72-0.76,1.25-1.14,1.59
			c-0.38,0.35-0.76,0.52-1.16,0.52c-0.24,0-0.43-0.07-0.57-0.22c-0.14-0.15-0.21-0.35-0.21-0.62c0-0.12,0.02-0.26,0.05-0.45
			c0.04-0.18,0.09-0.4,0.17-0.67l0.81-2.97c0.07-0.28,0.12-0.5,0.15-0.67c0.03-0.16,0.05-0.3,0.05-0.4c0-0.17-0.03-0.29-0.1-0.36
			c-0.07-0.08-0.17-0.11-0.3-0.11c-0.25,0-0.57,0.15-0.96,0.46c-0.39,0.31-0.8,0.74-1.24,1.3c-0.43,0.55-0.8,1.16-1.11,1.84
			c-0.31,0.68-0.6,1.57-0.89,2.66H119.56z"/>
		<path class="st1" d="M112.28,50.77c0-0.52,0.11-1.04,0.32-1.57c0.22-0.53,0.53-1.03,0.94-1.51c0.51-0.59,1.06-1.05,1.67-1.37
			c0.6-0.32,1.2-0.49,1.79-0.49c0.79,0,1.41,0.23,1.88,0.69c0.47,0.46,0.7,1.08,0.7,1.85c0,0.49-0.11,1-0.32,1.53
			c-0.21,0.53-0.51,1.03-0.9,1.5c-0.5,0.61-1.07,1.07-1.69,1.41c-0.62,0.33-1.25,0.5-1.88,0.5c-0.76,0-1.37-0.23-1.83-0.69
			C112.51,52.16,112.28,51.54,112.28,50.77z M116.92,46.25c-0.38,0-0.77,0.14-1.16,0.43c-0.39,0.29-0.75,0.7-1.08,1.24
			c-0.31,0.51-0.56,1.06-0.74,1.65c-0.18,0.59-0.28,1.14-0.28,1.64c0,0.52,0.11,0.93,0.34,1.22c0.23,0.29,0.55,0.43,0.97,0.43
			c0.33,0,0.67-0.1,1.01-0.31c0.34-0.21,0.65-0.5,0.92-0.88c0.4-0.53,0.72-1.15,0.96-1.85c0.24-0.7,0.37-1.33,0.37-1.91
			c0-0.54-0.11-0.96-0.34-1.24C117.67,46.39,117.35,46.25,116.92,46.25z"/>
		<path class="st1" d="M109.29,46.54l0.06-0.26c0.74-0.09,1.45-0.21,2.15-0.36c0.14-0.04,0.22-0.05,0.24-0.05
			c0.05,0,0.09,0.02,0.12,0.05c0.03,0.04,0.05,0.08,0.05,0.14c0,0.04,0,0.07-0.02,0.12c-0.01,0.04-0.03,0.1-0.05,0.16l-1.49,4.95
			c-0.04,0.15-0.07,0.27-0.09,0.37c-0.02,0.1-0.03,0.18-0.03,0.24c0,0.15,0.03,0.26,0.09,0.34c0.06,0.08,0.14,0.12,0.24,0.12
			c0.15,0,0.34-0.11,0.58-0.31c0.23-0.21,0.48-0.5,0.75-0.88l0.23,0.23c-0.43,0.62-0.86,1.08-1.28,1.4
			c-0.42,0.32-0.81,0.48-1.19,0.48c-0.25,0-0.43-0.07-0.56-0.22c-0.13-0.14-0.19-0.35-0.19-0.63c0-0.14,0.02-0.31,0.06-0.5
			c0.04-0.19,0.11-0.46,0.21-0.81l0.99-3.51l0.01-0.02c0.07-0.26,0.1-0.42,0.1-0.5c0-0.2-0.07-0.33-0.22-0.42
			C109.91,46.58,109.66,46.54,109.29,46.54z M110.92,43.27c0-0.21,0.08-0.39,0.25-0.55c0.16-0.16,0.35-0.25,0.55-0.25
			c0.22,0,0.4,0.08,0.56,0.24c0.16,0.16,0.24,0.34,0.24,0.56c0,0.23-0.08,0.41-0.23,0.57c-0.15,0.15-0.34,0.23-0.57,0.23
			c-0.21,0-0.4-0.08-0.55-0.23C111,43.67,110.92,43.49,110.92,43.27z"/>
		<path class="st1" d="M105.64,46.62l0.07-0.33c0.47-0.09,0.92-0.31,1.36-0.67c0.43-0.36,0.85-0.87,1.25-1.53h0.35l-0.59,2.02h1.31
			l-0.12,0.5h-1.31l-1.22,4.61c-0.05,0.17-0.08,0.31-0.11,0.44c-0.03,0.13-0.04,0.23-0.04,0.31c0,0.1,0.03,0.18,0.08,0.24
			c0.05,0.06,0.12,0.09,0.2,0.09c0.13,0,0.3-0.09,0.5-0.27c0.2-0.18,0.43-0.46,0.71-0.84l0.23,0.26c-0.42,0.59-0.82,1.03-1.2,1.32
			c-0.38,0.29-0.76,0.43-1.13,0.43c-0.25,0-0.43-0.07-0.56-0.2c-0.12-0.13-0.19-0.33-0.19-0.59c0-0.12,0.01-0.24,0.03-0.37
			c0.02-0.13,0.05-0.27,0.1-0.42l1.34-5.01H105.64z"/>
		<path class="st1" d="M104.64,51.43c-0.42,0.6-0.82,1.06-1.19,1.37c-0.37,0.31-0.71,0.46-1.02,0.46c-0.2,0-0.36-0.06-0.47-0.18
			c-0.11-0.12-0.16-0.3-0.16-0.53c0-0.15,0.04-0.38,0.11-0.69c0.07-0.31,0.21-0.81,0.42-1.49c-0.63,1.04-1.19,1.78-1.7,2.22
			c-0.51,0.45-1.02,0.67-1.55,0.67c-0.41,0-0.73-0.14-0.96-0.44c-0.23-0.29-0.34-0.7-0.34-1.24c0-0.64,0.12-1.3,0.37-1.98
			c0.24-0.68,0.59-1.31,1.02-1.87c0.47-0.62,0.96-1.08,1.47-1.4c0.5-0.32,1-0.48,1.5-0.48c0.31,0,0.57,0.07,0.77,0.21
			c0.2,0.14,0.32,0.34,0.38,0.6l0.2-0.67h1.18l-1.4,5c-0.07,0.26-0.12,0.48-0.16,0.65c-0.04,0.18-0.06,0.31-0.06,0.41
			c0,0.06,0.03,0.1,0.08,0.15c0.05,0.04,0.11,0.06,0.19,0.06c0.12,0,0.26-0.08,0.44-0.24c0.18-0.16,0.41-0.43,0.69-0.8L104.64,51.43
			z M102.17,46.28c-0.35,0-0.7,0.14-1.03,0.41c-0.34,0.27-0.66,0.68-0.96,1.23c-0.32,0.58-0.57,1.17-0.75,1.79
			c-0.18,0.62-0.27,1.18-0.27,1.69c0,0.29,0.06,0.52,0.18,0.68c0.12,0.16,0.28,0.25,0.49,0.25c0.29,0,0.59-0.14,0.9-0.42
			c0.31-0.28,0.66-0.71,1.03-1.3c0.39-0.61,0.69-1.21,0.89-1.79c0.21-0.59,0.31-1.11,0.31-1.58c0-0.32-0.07-0.56-0.2-0.72
			C102.62,46.36,102.42,46.28,102.17,46.28z"/>
		<path class="st1" d="M89.87,53.12l1.49-5.03c0.07-0.22,0.12-0.41,0.15-0.57c0.03-0.16,0.05-0.29,0.05-0.39
			c0-0.18-0.07-0.31-0.2-0.39c-0.13-0.08-0.36-0.12-0.69-0.12h-0.13l0.05-0.28c0.78-0.08,1.54-0.21,2.29-0.39
			c0.15-0.04,0.24-0.05,0.26-0.05c0.03,0,0.05,0.01,0.06,0.03c0.01,0.02,0.02,0.06,0.02,0.12c-0.01,0.02-0.01,0.04-0.02,0.09
			c-0.01,0.04-0.03,0.11-0.06,0.21l-0.86,2.75c0.74-1.02,1.45-1.8,2.13-2.35c0.68-0.54,1.28-0.82,1.8-0.82
			c0.29,0,0.51,0.07,0.66,0.22c0.16,0.15,0.23,0.35,0.23,0.63c0,0.17-0.02,0.37-0.06,0.59c-0.04,0.22-0.09,0.45-0.16,0.7L96,51.09
			c-0.08,0.26-0.13,0.45-0.15,0.58c-0.03,0.13-0.04,0.23-0.04,0.31c0,0.12,0.03,0.21,0.08,0.27c0.06,0.06,0.13,0.09,0.24,0.09
			c0.16,0,0.33-0.11,0.52-0.32c0.19-0.21,0.42-0.54,0.67-0.99l0.25,0.18c-0.38,0.72-0.76,1.25-1.14,1.59
			c-0.38,0.35-0.76,0.52-1.16,0.52c-0.24,0-0.43-0.07-0.57-0.22c-0.14-0.15-0.21-0.35-0.21-0.62c0-0.12,0.02-0.26,0.05-0.45
			c0.04-0.18,0.09-0.4,0.17-0.67l0.81-2.97c0.07-0.28,0.12-0.5,0.15-0.67c0.03-0.16,0.05-0.3,0.05-0.4c0-0.17-0.03-0.29-0.1-0.36
			c-0.07-0.08-0.17-0.11-0.3-0.11c-0.25,0-0.57,0.15-0.96,0.46c-0.39,0.31-0.8,0.74-1.24,1.3c-0.43,0.55-0.8,1.16-1.11,1.84
			c-0.31,0.68-0.6,1.57-0.88,2.66H89.87z"/>
		<path class="st1" d="M85.31,53.11l1.31-4.72c0.08-0.27,0.13-0.5,0.17-0.7c0.04-0.2,0.06-0.35,0.06-0.45c0-0.21-0.07-0.35-0.2-0.43
			c-0.13-0.08-0.39-0.13-0.79-0.14l0.05-0.29c0.56-0.08,1.35-0.23,2.38-0.45c0.07,0,0.11,0.01,0.13,0.03
			c0.02,0.02,0.03,0.05,0.03,0.11c0,0.02,0,0.05-0.01,0.09c-0.01,0.04-0.02,0.09-0.03,0.14l-0.78,2.79
			c0.61-1.04,1.13-1.82,1.58-2.34c0.45-0.51,0.83-0.77,1.15-0.77c0.21,0,0.38,0.06,0.5,0.19c0.12,0.13,0.18,0.31,0.18,0.53
			c0,0.27-0.08,0.5-0.25,0.69c-0.17,0.19-0.37,0.28-0.61,0.28c-0.18,0-0.34-0.06-0.47-0.17c-0.13-0.12-0.21-0.27-0.23-0.46
			c-0.66,0.67-1.23,1.51-1.72,2.52c-0.49,1.01-0.9,2.2-1.22,3.56H85.31z"/>
		<path class="st1" d="M84.68,51.24l0.23,0.24c-0.49,0.62-1.01,1.07-1.54,1.36c-0.53,0.29-1.12,0.44-1.75,0.44
			c-0.67,0-1.19-0.21-1.57-0.64c-0.38-0.43-0.57-1.02-0.57-1.78c0-0.59,0.13-1.17,0.38-1.76c0.25-0.59,0.61-1.13,1.07-1.63
			c0.48-0.51,1-0.91,1.56-1.19c0.55-0.29,1.08-0.43,1.59-0.43c0.46,0,0.82,0.1,1.07,0.3c0.25,0.2,0.37,0.49,0.37,0.86
			c0,0.69-0.4,1.29-1.21,1.8c-0.81,0.51-1.91,0.86-3.32,1.04c-0.04,0.21-0.07,0.41-0.09,0.58c-0.02,0.18-0.03,0.32-0.03,0.44
			c0,0.56,0.12,0.98,0.36,1.25c0.24,0.28,0.6,0.42,1.08,0.42c0.36,0,0.75-0.11,1.15-0.33C83.87,51.98,84.27,51.66,84.68,51.24z
			 M81.05,49.49c0.99-0.14,1.78-0.44,2.37-0.91c0.58-0.47,0.87-1.04,0.87-1.7c0-0.2-0.05-0.35-0.15-0.46
			c-0.1-0.11-0.24-0.16-0.41-0.16c-0.48,0-0.98,0.3-1.49,0.91C81.73,47.77,81.33,48.54,81.05,49.49z"/>
		<path class="st1" d="M76.34,46.62l0.07-0.33c0.47-0.09,0.93-0.31,1.36-0.67c0.43-0.36,0.85-0.87,1.25-1.53h0.36l-0.59,2.02h1.31
			l-0.12,0.5h-1.31l-1.22,4.61c-0.05,0.17-0.08,0.31-0.11,0.44c-0.03,0.13-0.04,0.23-0.04,0.31c0,0.1,0.03,0.18,0.08,0.24
			c0.05,0.06,0.12,0.09,0.2,0.09c0.14,0,0.3-0.09,0.5-0.27c0.2-0.18,0.43-0.46,0.71-0.84l0.23,0.26c-0.42,0.59-0.82,1.03-1.2,1.32
			c-0.39,0.29-0.76,0.43-1.14,0.43c-0.25,0-0.43-0.07-0.56-0.2c-0.12-0.13-0.18-0.33-0.18-0.59c0-0.12,0.01-0.24,0.03-0.37
			c0.02-0.13,0.05-0.27,0.1-0.42l1.34-5.01H76.34z"/>
		<path class="st1" d="M67.83,53.12l1.49-5.03c0.07-0.22,0.11-0.41,0.15-0.57c0.03-0.16,0.05-0.29,0.05-0.39
			c0-0.18-0.07-0.31-0.2-0.39c-0.13-0.08-0.36-0.12-0.69-0.12h-0.13l0.05-0.28c0.78-0.08,1.54-0.21,2.29-0.39
			c0.15-0.04,0.24-0.05,0.26-0.05c0.03,0,0.05,0.01,0.06,0.03c0.01,0.02,0.02,0.06,0.02,0.12c-0.01,0.02-0.01,0.04-0.02,0.09
			c-0.01,0.04-0.03,0.11-0.06,0.21l-0.86,2.75c0.74-1.02,1.45-1.8,2.13-2.35c0.68-0.54,1.28-0.82,1.8-0.82
			c0.29,0,0.51,0.07,0.66,0.22c0.16,0.15,0.23,0.35,0.23,0.63c0,0.17-0.02,0.37-0.06,0.59c-0.04,0.22-0.09,0.45-0.16,0.7l-0.88,3.03
			c-0.08,0.26-0.13,0.45-0.15,0.58c-0.03,0.13-0.04,0.23-0.04,0.31c0,0.12,0.03,0.21,0.08,0.27c0.05,0.06,0.13,0.09,0.24,0.09
			c0.16,0,0.33-0.11,0.52-0.32c0.19-0.21,0.42-0.54,0.67-0.99l0.25,0.18c-0.38,0.72-0.76,1.25-1.14,1.59
			c-0.38,0.35-0.76,0.52-1.16,0.52c-0.24,0-0.43-0.07-0.57-0.22c-0.14-0.15-0.21-0.35-0.21-0.62c0-0.12,0.02-0.26,0.05-0.45
			c0.04-0.18,0.09-0.4,0.17-0.67l0.81-2.97c0.07-0.28,0.12-0.5,0.15-0.67c0.03-0.16,0.05-0.3,0.05-0.4c0-0.17-0.03-0.29-0.1-0.36
			c-0.07-0.08-0.17-0.11-0.3-0.11c-0.25,0-0.57,0.15-0.96,0.46c-0.39,0.31-0.8,0.74-1.24,1.3c-0.43,0.55-0.8,1.16-1.11,1.84
			c-0.31,0.68-0.6,1.57-0.89,2.66H67.83z"/>
		<path class="st1" d="M62.35,53.12l0.09-0.31h0.06c0.48,0,0.83-0.09,1.04-0.26c0.22-0.18,0.4-0.54,0.55-1.09l1.94-7.19
			c0.05-0.19,0.09-0.34,0.11-0.46c0.02-0.12,0.03-0.23,0.03-0.32c0-0.24-0.09-0.42-0.26-0.53c-0.18-0.11-0.48-0.18-0.91-0.21
			l0.08-0.31h4.32l-0.08,0.31H69.2c-0.44,0-0.77,0.09-0.99,0.28c-0.22,0.18-0.4,0.54-0.54,1.08l-1.93,7.19
			c-0.05,0.18-0.08,0.34-0.1,0.47c-0.02,0.13-0.03,0.25-0.03,0.34c0,0.25,0.09,0.43,0.26,0.54c0.18,0.11,0.47,0.17,0.89,0.19
			l-0.08,0.31H62.35z"/>
	</g>
	<g>
		<path class="st1" d="M127.75,32.29L127.75,32.29c0.08-0.31,0.11-0.56,0.11-0.75c0-0.16-0.05-0.27-0.16-0.34
			c-0.11-0.06-0.3-0.09-0.57-0.09h-0.23l0.06-0.28c0.51-0.04,1.03-0.12,1.55-0.25c0.52-0.13,0.79-0.2,0.8-0.2
			c0.05,0,0.09,0.01,0.11,0.03c0.02,0.02,0.04,0.06,0.04,0.11c0,0.03-0.01,0.08-0.03,0.14c0,0.01,0,0.02-0.01,0.02l-1.34,5.11
			c0.41-0.52,0.82-0.91,1.23-1.15c0.41-0.24,0.85-0.37,1.33-0.37c0.64,0,1.15,0.21,1.54,0.62c0.39,0.42,0.58,0.97,0.58,1.66
			c0,0.54-0.11,1.09-0.33,1.64c-0.22,0.55-0.54,1.07-0.96,1.56c-0.54,0.65-1.13,1.13-1.77,1.44c-0.64,0.32-1.33,0.48-2.07,0.48
			c-0.56,0-1.04-0.1-1.42-0.3c-0.38-0.2-0.57-0.44-0.57-0.72c0-0.04,0-0.07,0.01-0.11c0.01-0.04,0.02-0.09,0.04-0.15L127.75,32.29z
			 M126.97,40.15c-0.02,0.09-0.04,0.17-0.05,0.25c-0.01,0.07-0.01,0.14-0.01,0.2c0,0.21,0.09,0.38,0.27,0.49
			c0.18,0.12,0.43,0.17,0.77,0.17c0.34,0,0.67-0.07,0.99-0.21c0.32-0.14,0.61-0.35,0.88-0.63c0.48-0.49,0.87-1.07,1.16-1.74
			c0.29-0.67,0.43-1.33,0.43-1.98c0-0.51-0.13-0.91-0.38-1.22c-0.25-0.3-0.59-0.45-1.02-0.45c-0.51,0-0.98,0.23-1.39,0.7
			c-0.42,0.47-0.74,1.12-0.97,1.96L126.97,40.15z"/>
		<path class="st1" d="M118.26,34.93l0.05-0.28c0.68-0.08,1.37-0.19,2.08-0.33c0.18-0.04,0.28-0.06,0.3-0.06
			c0.07,0,0.12,0.01,0.15,0.03c0.04,0.02,0.05,0.05,0.05,0.08c0,0.05-0.01,0.1-0.02,0.16c-0.01,0.06-0.03,0.13-0.05,0.21L119.6,39
			c-0.08,0.29-0.14,0.54-0.19,0.76c-0.05,0.22-0.07,0.37-0.07,0.46c0,0.15,0.04,0.27,0.13,0.36c0.09,0.09,0.2,0.14,0.34,0.14
			c0.31,0,0.67-0.19,1.08-0.56c0.41-0.37,0.87-0.92,1.38-1.66c0.4-0.57,0.74-1.19,1.02-1.86c0.28-0.67,0.52-1.42,0.7-2.24h1.2
			l-1.33,4.93c-0.07,0.25-0.11,0.46-0.15,0.64c-0.03,0.18-0.05,0.31-0.05,0.39c0,0.12,0.03,0.2,0.08,0.26
			c0.05,0.06,0.13,0.09,0.23,0.09c0.16,0,0.34-0.1,0.56-0.3c0.21-0.2,0.45-0.5,0.71-0.89l0.21,0.21c-0.38,0.62-0.77,1.09-1.17,1.42
			c-0.4,0.33-0.8,0.49-1.18,0.49c-0.26,0-0.45-0.07-0.58-0.2c-0.13-0.13-0.19-0.33-0.19-0.6c0-0.16,0.02-0.34,0.06-0.55
			c0.04-0.21,0.09-0.44,0.17-0.71l0.48-1.65c-0.83,1.3-1.56,2.25-2.19,2.83c-0.63,0.58-1.24,0.88-1.82,0.88
			c-0.3,0-0.54-0.09-0.71-0.28c-0.17-0.18-0.25-0.44-0.25-0.77c0-0.19,0.02-0.4,0.06-0.64c0.04-0.24,0.13-0.62,0.28-1.15l0.7-2.52
			c0.04-0.15,0.06-0.3,0.09-0.45c0.02-0.15,0.03-0.28,0.03-0.4c0-0.2-0.06-0.33-0.19-0.4C118.91,34.96,118.65,34.93,118.26,34.93z"
			/>
		<path class="st1" d="M117.67,39.82c-0.41,0.57-0.82,1.01-1.24,1.33c-0.42,0.32-0.79,0.48-1.1,0.48c-0.24,0-0.42-0.07-0.56-0.2
			c-0.14-0.14-0.21-0.32-0.21-0.57c0-0.27,0.11-0.8,0.33-1.6l0.02-0.09l1.96-7.23c0.02-0.08,0.04-0.16,0.05-0.23
			c0.01-0.07,0.02-0.13,0.02-0.19c0-0.23-0.06-0.39-0.19-0.47c-0.13-0.08-0.39-0.13-0.79-0.14l0.02-0.28
			c0.68-0.08,1.38-0.18,2.08-0.32c0.18-0.04,0.28-0.05,0.31-0.05c0.06,0,0.11,0.01,0.14,0.03c0.03,0.02,0.04,0.06,0.04,0.1
			c0,0.04-0.01,0.09-0.02,0.14c-0.01,0.06-0.03,0.11-0.05,0.17l-2.44,8.82c-0.05,0.18-0.09,0.34-0.12,0.49
			c-0.03,0.15-0.04,0.24-0.04,0.29c0,0.12,0.02,0.21,0.07,0.27c0.05,0.06,0.12,0.09,0.21,0.09c0.15,0,0.32-0.08,0.51-0.24
			c0.19-0.16,0.44-0.45,0.75-0.85L117.67,39.82z"/>
		<path class="st1" d="M113.55,39.16l0.29,0.26c-0.64,0.8-1.32,1.39-2.05,1.77c-0.72,0.38-1.53,0.57-2.4,0.57
			c-1.36,0-2.44-0.39-3.24-1.18c-0.8-0.78-1.2-1.84-1.2-3.17c0-0.75,0.15-1.48,0.45-2.22c0.3-0.73,0.74-1.43,1.33-2.09
			c0.7-0.8,1.49-1.41,2.37-1.85c0.88-0.44,1.77-0.66,2.66-0.66c0.51,0,1.04,0.08,1.59,0.25c0.55,0.17,0.85,0.25,0.92,0.25
			c0.1,0,0.2-0.03,0.29-0.1c0.1-0.07,0.18-0.17,0.24-0.29h0.31l-0.63,3.18h-0.32c0-0.06,0-0.13,0-0.2c0-0.07,0-0.16,0-0.28
			c0-0.74-0.2-1.3-0.59-1.7c-0.39-0.4-0.95-0.59-1.67-0.59c-0.62,0-1.23,0.16-1.82,0.48c-0.59,0.32-1.15,0.78-1.67,1.39
			c-0.53,0.62-0.94,1.32-1.22,2.1c-0.28,0.78-0.43,1.59-0.43,2.44c0,1.11,0.27,1.98,0.82,2.62c0.54,0.64,1.28,0.96,2.22,0.96
			c0.68,0,1.33-0.16,1.96-0.49C112.39,40.28,112.98,39.8,113.55,39.16z"/>
	</g>
	<g>
		<path class="st1" d="M96.26,41.62l0.34-2.54l0.27,0.02c0.03,0.7,0.18,1.24,0.45,1.63c0.27,0.38,0.64,0.57,1.1,0.57
			c0.37,0,0.67-0.12,0.9-0.37c0.24-0.25,0.35-0.57,0.35-0.97c0-0.35-0.24-0.85-0.72-1.48c-0.06-0.08-0.11-0.13-0.14-0.17
			c-0.04-0.05-0.09-0.12-0.17-0.22c-0.64-0.84-0.96-1.51-0.96-2.01c0-0.52,0.18-0.95,0.55-1.29c0.36-0.34,0.82-0.52,1.37-0.52
			c0.29,0,0.62,0.05,0.97,0.16c0.36,0.11,0.57,0.16,0.65,0.16c0.09,0,0.17-0.03,0.24-0.08c0.07-0.05,0.11-0.12,0.12-0.2h0.26
			l-0.31,2.3h-0.26c-0.07-0.65-0.23-1.14-0.48-1.46c-0.25-0.32-0.59-0.48-1.03-0.48c-0.25,0-0.47,0.09-0.65,0.26
			c-0.18,0.17-0.27,0.38-0.27,0.62c0,0.33,0.24,0.81,0.73,1.44c0.06,0.08,0.1,0.13,0.13,0.17c0.06,0.09,0.15,0.21,0.27,0.36
			c0.61,0.8,0.92,1.46,0.92,1.98c0,0.63-0.22,1.16-0.67,1.59c-0.45,0.43-1,0.64-1.67,0.64c-0.34,0-0.69-0.05-1.05-0.16
			c-0.36-0.11-0.57-0.16-0.62-0.16c-0.09,0-0.16,0.02-0.22,0.06c-0.06,0.04-0.1,0.09-0.12,0.17H96.26z"/>
		<path class="st1" d="M91.93,41.51l1.31-4.72c0.08-0.27,0.13-0.5,0.17-0.7c0.04-0.2,0.06-0.35,0.06-0.45c0-0.21-0.07-0.35-0.2-0.43
			c-0.13-0.08-0.4-0.13-0.79-0.14l0.05-0.29c0.56-0.08,1.35-0.23,2.38-0.45c0.07,0,0.11,0.01,0.13,0.03
			c0.02,0.02,0.03,0.05,0.03,0.11c0,0.02,0,0.05-0.01,0.09c-0.01,0.04-0.02,0.09-0.03,0.14l-0.78,2.79
			c0.61-1.04,1.13-1.82,1.58-2.34c0.45-0.51,0.83-0.77,1.15-0.77c0.21,0,0.38,0.06,0.5,0.19c0.12,0.13,0.18,0.31,0.18,0.53
			c0,0.27-0.08,0.5-0.25,0.69c-0.17,0.19-0.37,0.28-0.61,0.28c-0.18,0-0.34-0.06-0.47-0.17c-0.13-0.12-0.21-0.27-0.23-0.46
			c-0.66,0.67-1.23,1.51-1.72,2.52c-0.49,1.01-0.9,2.2-1.22,3.56H91.93z"/>
		<path class="st1" d="M90.98,39.64l0.23,0.24c-0.49,0.62-1.01,1.07-1.54,1.36c-0.53,0.29-1.12,0.44-1.75,0.44
			c-0.67,0-1.19-0.21-1.57-0.64c-0.38-0.43-0.57-1.02-0.57-1.78c0-0.58,0.13-1.17,0.38-1.76c0.25-0.59,0.61-1.13,1.07-1.63
			c0.48-0.51,1-0.91,1.56-1.19c0.55-0.29,1.08-0.43,1.59-0.43c0.46,0,0.82,0.1,1.07,0.3c0.25,0.2,0.37,0.49,0.37,0.86
			c0,0.69-0.4,1.29-1.21,1.8c-0.81,0.51-1.91,0.86-3.32,1.05c-0.04,0.21-0.07,0.41-0.09,0.58c-0.02,0.18-0.03,0.32-0.03,0.44
			c0,0.56,0.12,0.98,0.36,1.25c0.24,0.28,0.6,0.42,1.08,0.42c0.36,0,0.75-0.11,1.15-0.33C90.17,40.38,90.57,40.06,90.98,39.64z
			 M87.35,37.89c0.99-0.14,1.78-0.44,2.36-0.91c0.58-0.47,0.88-1.04,0.88-1.7c0-0.2-0.05-0.35-0.15-0.46
			c-0.1-0.11-0.24-0.16-0.41-0.16c-0.48,0-0.98,0.3-1.49,0.91C88.03,36.17,87.63,36.94,87.35,37.89z"/>
		<path class="st1" d="M78.14,41.52l1.49-5.03c0.07-0.22,0.12-0.41,0.15-0.57c0.03-0.16,0.05-0.29,0.05-0.39
			c0-0.18-0.07-0.31-0.2-0.39c-0.13-0.08-0.36-0.12-0.69-0.12h-0.13l0.05-0.28c0.78-0.08,1.54-0.21,2.29-0.39
			c0.15-0.04,0.24-0.05,0.26-0.05c0.03,0,0.05,0.01,0.06,0.03c0.01,0.02,0.02,0.06,0.02,0.12c-0.01,0.02-0.01,0.04-0.02,0.09
			c-0.01,0.04-0.03,0.11-0.06,0.21l-0.86,2.75c0.74-1.02,1.45-1.8,2.13-2.35c0.68-0.54,1.28-0.82,1.8-0.82
			c0.29,0,0.51,0.07,0.66,0.22c0.16,0.15,0.23,0.35,0.23,0.63c0,0.17-0.02,0.37-0.06,0.58c-0.04,0.22-0.09,0.45-0.16,0.7l-0.88,3.03
			c-0.07,0.26-0.13,0.45-0.15,0.58c-0.03,0.13-0.04,0.23-0.04,0.31c0,0.12,0.03,0.21,0.08,0.27c0.06,0.06,0.13,0.09,0.24,0.09
			c0.16,0,0.33-0.11,0.52-0.32c0.19-0.21,0.42-0.54,0.67-0.99l0.25,0.18c-0.38,0.72-0.76,1.25-1.14,1.59
			c-0.38,0.35-0.76,0.52-1.16,0.52c-0.24,0-0.43-0.07-0.57-0.22c-0.14-0.15-0.21-0.35-0.21-0.62c0-0.12,0.02-0.26,0.05-0.45
			c0.04-0.18,0.09-0.4,0.17-0.67l0.81-2.97c0.07-0.28,0.12-0.5,0.15-0.67c0.03-0.16,0.05-0.3,0.05-0.4c0-0.17-0.03-0.29-0.1-0.36
			c-0.07-0.08-0.17-0.11-0.3-0.11c-0.25,0-0.57,0.15-0.96,0.46c-0.38,0.31-0.8,0.74-1.24,1.3c-0.43,0.55-0.8,1.16-1.11,1.84
			c-0.31,0.68-0.6,1.57-0.88,2.66H78.14z"/>
		<path class="st1" d="M75.35,34.94l0.06-0.26c0.73-0.09,1.45-0.21,2.15-0.36c0.14-0.04,0.22-0.05,0.24-0.05
			c0.05,0,0.09,0.02,0.12,0.05c0.03,0.04,0.05,0.08,0.05,0.14c0,0.04,0,0.07-0.02,0.12c-0.01,0.04-0.03,0.1-0.05,0.16l-1.49,4.95
			c-0.04,0.15-0.07,0.27-0.09,0.37c-0.02,0.1-0.03,0.18-0.03,0.25c0,0.15,0.03,0.26,0.09,0.34c0.06,0.08,0.14,0.12,0.24,0.12
			c0.15,0,0.34-0.1,0.58-0.31c0.23-0.21,0.49-0.5,0.75-0.88l0.23,0.23c-0.43,0.62-0.86,1.08-1.28,1.4
			c-0.42,0.32-0.81,0.48-1.19,0.48c-0.25,0-0.44-0.07-0.56-0.22c-0.13-0.14-0.19-0.35-0.19-0.63c0-0.14,0.02-0.31,0.06-0.5
			c0.04-0.19,0.11-0.47,0.21-0.81L76.22,36l0.01-0.02c0.07-0.26,0.1-0.42,0.1-0.51c0-0.2-0.07-0.33-0.22-0.41
			C75.96,34.98,75.71,34.94,75.35,34.94z M76.97,31.67c0-0.21,0.08-0.39,0.25-0.55c0.16-0.16,0.34-0.25,0.55-0.25
			c0.22,0,0.4,0.08,0.56,0.24c0.16,0.16,0.24,0.34,0.24,0.56c0,0.23-0.08,0.41-0.23,0.57c-0.15,0.15-0.34,0.23-0.57,0.23
			c-0.21,0-0.4-0.08-0.55-0.23C77.05,32.07,76.97,31.89,76.97,31.67z"/>
		<path class="st1" d="M63.04,41.52l0.1-0.31h0.08c0.48,0,0.83-0.09,1.05-0.26c0.22-0.18,0.4-0.54,0.56-1.09l1.93-7.2
			c0.05-0.19,0.09-0.34,0.11-0.46c0.02-0.12,0.03-0.23,0.03-0.32c0-0.24-0.09-0.42-0.26-0.53c-0.17-0.11-0.48-0.18-0.91-0.22
			l0.09-0.3h4.1c1.54,0,2.76,0.4,3.64,1.19c0.89,0.79,1.33,1.88,1.33,3.25c0,1.01-0.25,1.96-0.74,2.83
			c-0.5,0.88-1.21,1.63-2.15,2.27c-0.58,0.4-1.22,0.69-1.93,0.88c-0.71,0.19-1.5,0.28-2.37,0.28H63.04z M68.31,32.61l-1.84,6.86
			c-0.06,0.21-0.1,0.4-0.14,0.57c-0.04,0.17-0.05,0.29-0.05,0.36c0,0.22,0.11,0.38,0.34,0.48c0.23,0.1,0.62,0.14,1.16,0.14
			c0.63,0,1.21-0.08,1.75-0.25c0.54-0.17,1-0.41,1.39-0.74c0.66-0.53,1.19-1.26,1.59-2.19c0.4-0.93,0.6-1.91,0.6-2.94
			c0-1.16-0.29-2.05-0.86-2.66c-0.58-0.61-1.42-0.91-2.52-0.91c-0.47,0-0.78,0.06-0.94,0.19C68.62,31.64,68.46,32,68.31,32.61z"/>
	</g>
	<g>
		<path class="st2" d="M43.73,59.03c8.85,0,16.03-7.18,16.03-16.03c0-8.85-7.18-16.03-16.03-16.03H24.4
			c-8.85,0-16.03,7.18-16.03,16.03c0,8.85,7.18,16.03,16.03,16.03H43.73z"/>
		<path class="st0" d="M40.09,43c0,8.67-7.03,15.7-15.7,15.7c-8.67,0-15.7-7.03-15.7-15.7c0-8.67,7.03-15.69,15.7-15.69
			C33.07,27.31,40.09,34.33,40.09,43z"/>
		<path class="st2" d="M14.57,43c0,4.18,2.61,7.73,6.28,9.16V33.84C17.18,35.27,14.57,38.83,14.57,43z"/>
		<path class="st2" d="M34.22,43c0-4.17-2.61-7.73-6.28-9.16v18.31C31.62,50.73,34.22,47.18,34.22,43z"/>
	</g>
</g>
</svg>
