<?xml version="1.0" encoding="utf-8"?>
<!-- Generator: Adobe Illustrator 24.0.2, SVG Export Plug-In . SVG Version: 6.00 Build 0)  -->
<svg version="1.1" id="Camada_1" xmlns="http://www.w3.org/2000/svg" xmlns:xlink="http://www.w3.org/1999/xlink" x="0px" y="0px"
	 viewBox="0 0 150 86" style="enable-background:new 0 0 150 86;" xml:space="preserve">
<style type="text/css">
	.st0{fill:#B3181D;}
	.st1{fill-rule:evenodd;clip-rule:evenodd;fill:#FFFFFF;}
</style>
<rect class="st0" width="150" height="86"/>
<path id="hipercard" class="st1" d="M38.08,31.35c0.68-0.47,1.56-2.63,0.56-3.52c-0.32-0.28-0.85-0.37-1.59-0.24
	c-0.69,0.12-1.08,0.35-1.35,0.72c-0.43,0.59-0.83,2.38-0.16,3.04C36.19,31.99,37.65,31.65,38.08,31.35z M28.38,27.82
	c-0.49,3.19-1.04,6.32-1.59,9.45c-3.54,0.04-7.16,0.18-10.58-0.08c0.65-3.06,1.11-6.3,1.75-9.37h-3.82
	c-1.37,7.81-2.61,15.74-4.14,23.38h3.9c0.61-3.92,1.18-7.88,1.99-11.61c3.32-0.08,7.31-0.23,10.5,0.08
	c-0.66,3.87-1.45,7.61-2.07,11.53h3.9c1.25-7.92,2.57-15.78,4.14-23.38H28.38z M83.51,34.55c-3.03-1.23-5.42,0.85-6.52,2.8
	c0.25-0.87,0.35-1.89,0.56-2.8h-3.02c-0.74,5.77-1.83,11.19-2.86,16.66h3.42c0.48-3.25,0.69-7.62,1.75-10.73
	c0.85-2.48,3.07-4.6,6.29-3.44C83.16,36.12,83.42,35.42,83.51,34.55z M85.42,47.28c-0.32-0.82-0.4-2.17-0.32-3.2
	c0.18-2.31,1.01-5.13,2.31-6.41c1.78-1.76,5.31-1.47,8.12-0.48c0.09-0.95,0.28-1.8,0.4-2.72c-4.61-0.76-8.98-0.29-11.3,2.16
	c-2.27,2.4-3.76,7.91-2.71,11.37c1.23,4.06,6.75,4.28,11.22,2.72c0.2-0.82,0.3-1.72,0.48-2.56C91.18,49.44,86.51,50.11,85.42,47.28z
	 M123.85,34.63c-3.02-1.52-5.54,1.03-6.52,2.56c0.28-0.79,0.3-1.84,0.56-2.64h-3.02c-0.82,5.72-1.8,11.27-2.94,16.66h3.5
	c0.02-2.21,0.45-3.84,0.8-6.01c0.73-4.62,1.81-9.69,7.16-8.17C123.55,36.25,123.62,35.37,123.85,34.63z M34.58,34.55
	c-0.09,0.01-0.09,0.13-0.08,0.24c-0.75,5.67-1.77,11.08-2.86,16.42h3.42c0.82-5.71,1.76-11.3,2.94-16.66H34.58z M64.66,34.23
	c-2.47,0.19-4.56,0.91-6.05,2.48c-1.82,1.93-3.3,6.2-2.86,10.09c0.62,5.55,7.48,5.35,12.97,4c0.09-0.97,0.33-1.81,0.48-2.72
	c-2.26,0.85-6.19,2.04-8.51,0.56c-1.76-1.12-1.77-3.95-1.19-6.41c3.69-0.12,7.52-0.1,11.22,0c0.23-1.74,0.9-3.64,0.32-5.37
	C70.25,34.6,67.48,34.01,64.66,34.23z M67.92,40.32h-8.04c0.25-1.86,1.92-3.9,4.53-4C66.88,36.22,68.65,37.22,67.92,40.32z
	 M51.69,34.55c-2.9-1.09-6.42,0.21-7.95,1.46c0.01,0.05-0.04,0.06-0.08,0.07c0.03-0.02,0.05-0.04,0.08-0.07c0,0,0-0.01,0-0.01
	c0.03-0.53,0.21-0.91,0.24-1.44h-2.94c-1.23,8.21-2.68,16.2-4.22,24.1h3.42c0.5-3.08,0.82-6.33,1.51-9.21
	c0.78,3.03,5.88,2.45,8.04,1.28C54.22,48.31,57.65,36.8,51.69,34.55z M48.98,48.09c-1.83,1.95-6.33,1.92-6.68-1.36
	c-0.15-1.43,0.38-2.93,0.64-4.4c0.26-1.5,0.45-2.93,0.72-4.24c1.8-2.22,7.1-2.48,7.64,1.2C51.76,42.48,50.5,46.47,48.98,48.09z
	 M136.58,27.34c-0.29,2.59-0.69,5.08-1.19,7.45c-8.39-2.67-13.54,3.54-13.45,11.21c0.02,1.48,0.27,2.95,1.19,4
	c1.59,1.81,6.14,2.24,8.43,0.72c0.44-0.29,0.9-0.83,1.19-1.2c0.22-0.28,0.57-1.01,0.64-0.8c-0.12,0.81-0.3,1.57-0.32,2.48h3.1
	c0.6-8.63,2.45-16.01,3.82-23.86H136.58z M128.94,49.37c-2.3,0.05-3.45-1.38-3.5-3.76c-0.09-4.17,1.72-8.79,5.41-9.21
	c1.72-0.19,2.96,0.21,4.22,0.64C133.91,41.71,134.33,49.25,128.94,49.37z M99.42,34.55c-0.17,0.95-0.43,1.81-0.64,2.72
	c2.02-0.51,8.3-2.07,8.91,0.64c0.2,0.9-0.15,1.86-0.4,2.56c-5.68-0.54-10.32,0.41-11.54,4.48c-0.82,2.73,0.09,5.42,1.83,6.17
	c3.35,1.44,7.42-0.21,8.83-2.48c-0.15,0.79-0.29,1.58-0.24,2.56h2.94c0.03-2.84,0.44-5.13,0.88-7.69c0.37-2.17,1.06-4.33,0.95-6.25
	C110.71,32.88,103.47,34.43,99.42,34.55z M104.99,48.01c-1.76,1.74-6.71,2.23-6.21-1.92c0.42-3.45,4.15-4.18,8.19-3.68
	C106.68,44.29,106.34,46.68,104.99,48.01z"/>
</svg>
